<svg width="120" height="65" viewBox="0 0 120 65" fill="none" xmlns="http://www.w3.org/2000/svg">
<path d="M1.20955 31.9533L1.2096 31.9533L15.181 47.9819C16.2312 49.1869 18.1037 49.1869 19.154 47.9819C20.0189 46.9896 20.0189 45.5112 19.154 44.5188L9.13662 33.0265C7.62479 31.292 7.6248 28.708 9.13662 26.9735L19.154 15.4812C20.0189 14.4888 20.0189 13.0104 19.154 12.0181C18.1037 10.8131 16.2312 10.8131 15.181 12.0181L1.2096 28.0467L1.20955 28.0467C0.749162 28.575 0.5 29.2785 0.5 30C0.5 30.7215 0.749162 31.4249 1.20955 31.9533Z" fill="#161616" stroke="#161616"/>
<path d="M34.6462 10.3755H43.6872C46.7734 10.3755 49.0246 11.1017 50.4406 12.5541C51.8567 13.9701 52.5647 16.1668 52.5647 19.1441V20.6691C52.5647 22.6298 52.2379 24.2274 51.5844 25.4619C50.9671 26.6964 50.0049 27.586 48.6978 28.1306V28.2396C51.6751 29.2562 53.1638 31.9068 53.1638 36.1912V39.4591C53.1638 42.4001 52.3832 44.6512 50.8219 46.2125C49.2969 47.7375 47.0457 48.5 44.0684 48.5H34.6462V10.3755ZM42.9791 25.8976C44.1773 25.8976 45.0669 25.589 45.6478 24.9717C46.2651 24.3545 46.5737 23.3197 46.5737 21.8673V19.7432C46.5737 18.3635 46.3196 17.365 45.8112 16.7478C45.3392 16.1305 44.5767 15.8219 43.5238 15.8219H40.6372V25.8976H42.9791ZM44.0684 43.0536C45.1214 43.0536 45.902 42.7813 46.4103 42.2367C46.9187 41.6557 47.1728 40.6754 47.1728 39.2957V35.9734C47.1728 34.2306 46.8642 33.0324 46.2469 32.3788C45.666 31.6889 44.6857 31.344 43.3059 31.344H40.6372V43.0536H44.0684ZM61.2951 10.3755H69.4101L75.619 48.5H69.628L68.5387 40.9296V41.0385H61.7308L60.6415 48.5H55.0862L61.2951 10.3755ZM67.8307 35.8645L65.162 17.0201H65.053L62.4388 35.8645H67.8307ZM86.861 49.0446C83.9926 49.0446 81.7959 48.2277 80.2709 46.5938C78.7822 44.9599 78.0379 42.6542 78.0379 39.6769V19.1986C78.0379 16.2213 78.7822 13.9156 80.2709 12.2817C81.7959 10.6478 83.9926 9.83088 86.861 9.83088C89.7294 9.83088 91.908 10.6478 93.3966 12.2817C94.9216 13.9156 95.6841 16.2213 95.6841 19.1986V23.2289H90.0199V18.8174C90.0199 16.4573 89.0214 15.2772 87.0244 15.2772C85.0274 15.2772 84.0289 16.4573 84.0289 18.8174V40.1126C84.0289 42.4364 85.0274 43.5983 87.0244 43.5983C89.0214 43.5983 90.0199 42.4364 90.0199 40.1126V34.285H95.6841V39.6769C95.6841 42.6542 94.9216 44.9599 93.3966 46.5938C91.908 48.2277 89.7294 49.0446 86.861 49.0446ZM99.2685 10.3755H105.259V26.4423L112.884 10.3755H118.875L111.741 24.3726L118.984 48.5H112.721L107.656 31.5074L105.259 36.3546V48.5H99.2685V10.3755Z" fill="#161616"/>
</svg>
