<svg width="54" height="48" viewBox="0 0 54 48" fill="none" xmlns="http://www.w3.org/2000/svg">
<path d="M42.5904 31.8565H39.2904C38.1859 31.8565 37.2904 32.752 37.2904 33.8565V35.0788C37.2904 36.1833 38.1859 37.0788 39.2904 37.0788H42.5904M42.5904 21.4121H39.2904C38.1859 21.4121 37.2904 22.3075 37.2904 23.4121V24.6343C37.2904 25.7389 38.1859 26.6343 39.2904 26.6343H42.5904M47.8904 42.301H28.6904C27.5859 42.301 26.6904 41.4055 26.6904 40.301V39.0787C26.6904 37.9742 27.5859 37.0788 28.6904 37.0788H29.9904C31.095 37.0788 31.9904 36.1833 31.9904 35.0788V33.8565C31.9904 32.752 31.095 31.8565 29.9904 31.8565H28.6904C27.5859 31.8565 26.6904 30.9611 26.6904 29.8565V28.6343C26.6904 27.5297 27.5859 26.6343 28.6904 26.6343H29.9904C31.095 26.6343 31.9904 25.7389 31.9904 24.6343V23.4121C31.9904 22.3075 31.095 21.4121 29.9904 21.4121H28.6904C27.5859 21.4121 26.6904 20.5167 26.6904 19.4121V18.1899C26.6904 17.0853 27.5859 16.1899 28.6904 16.1899H47.8904M21.3904 10.9676H18.0904C16.9859 10.9676 16.0904 10.0722 16.0904 8.96764V7.74541C16.0904 6.64084 16.9859 5.74542 18.0904 5.74542H21.3904M21.3904 21.4121H18.0904C16.9859 21.4121 16.0904 20.5167 16.0904 19.4121V18.1899C16.0904 17.0853 16.9859 16.1899 18.0904 16.1899H21.3904M21.3904 31.8565H18.0904C16.9859 31.8565 16.0904 30.9611 16.0904 29.8565V28.6343C16.0904 27.5297 16.9859 26.6343 18.0904 26.6343H21.3904M21.3904 42.301H18.0904C16.9859 42.301 16.0904 41.4055 16.0904 40.301V39.0787C16.0904 37.9742 16.9859 37.0788 18.0904 37.0788H21.3904M10.7904 10.9676H7.49043C6.38586 10.9676 5.49043 10.0722 5.49043 8.96764V7.74541C5.49043 6.64084 6.38586 5.74542 7.49043 5.74542H10.7904M10.7904 21.4121H7.49043C6.38586 21.4121 5.49043 20.5167 5.49043 19.4121V18.1899C5.49043 17.0853 6.38586 16.1899 7.49043 16.1899H10.7904M10.7904 31.8565H7.49043C6.38586 31.8565 5.49043 30.9611 5.49043 29.8565V28.6343C5.49043 27.5297 6.38586 26.6343 7.49043 26.6343H10.7904M10.7904 42.301H7.49043C6.38586 42.301 5.49043 41.4055 5.49043 40.301V39.0787C5.49043 37.9742 6.38586 37.0788 7.49043 37.0788H10.7904M28.6904 10.9676C27.5859 10.9676 26.6904 10.0722 26.6904 8.96764V2.52319C26.6904 1.41862 25.795 0.523193 24.6904 0.523193H2.19043C1.08586 0.523193 0.19043 1.41862 0.19043 2.52319V45.5232C0.19043 46.6278 1.08586 47.5232 2.19043 47.5232H51.1904C52.295 47.5232 53.1904 46.6278 53.1904 45.5232V12.9676C53.1904 11.8631 52.295 10.9676 51.1904 10.9676H28.6904Z" fill="#161616"/>
</svg>
