<svg width="54" height="54" viewBox="0 0 54 54" fill="none" xmlns="http://www.w3.org/2000/svg">
<path fill-rule="evenodd" clip-rule="evenodd" d="M26.6796 0C25.9024 0 25.157 0.306006 24.6074 0.850701C24.0578 1.3954 23.7491 2.13416 23.7491 2.90447L23.7491 11.8309L10.9055 20.2151C10.5546 20.4442 10.2875 20.7792 10.1439 21.1706C10.0003 21.5619 9.98788 21.9888 10.1084 22.3877L10.1123 22.3954L43.8877 22.3954V22.3877C44.0086 21.9892 43.9967 21.5626 43.8539 21.1713C43.711 20.78 43.4447 20.4447 43.0945 20.2151L29.6101 11.4127L29.6101 5.81282L32.0366 5.81282C32.8138 5.81282 33.5592 5.50682 34.1088 4.96212C34.6584 4.41743 34.9672 3.67866 34.9672 2.90835C34.9672 2.13803 34.6584 1.39927 34.1088 0.854574C33.5592 0.309879 32.8138 0.00387264 32.0366 0.00387263L26.6796 0ZM51.0695 32.9561H50.3036V48.191H51.0695C51.8467 48.191 52.5921 48.4971 53.1417 49.0417C53.6912 49.5864 54 50.3252 54 51.0955C54 51.8658 53.6912 52.6046 53.1417 53.1493C52.5921 53.694 51.8467 54 51.0695 54L2.93054 54C2.15331 54 1.40792 53.694 0.858334 53.1493C0.308752 52.6046 0 51.8658 0 51.0955C0 50.3252 0.308752 49.5864 0.858334 49.0417C1.40792 48.4971 2.15331 48.191 2.93054 48.191H3.69638L3.69638 32.9522H2.93054C2.15331 32.9522 1.40792 32.6462 0.858334 32.1015C0.308752 31.5568 0 30.8181 0 30.0478C0 29.2774 0.308752 28.5387 0.858334 27.994C1.40792 27.4493 2.15331 27.1433 2.93054 27.1433L51.0695 27.1433C51.8467 27.1433 52.5921 27.4493 53.1417 27.994C53.6912 28.5387 54 29.2774 54 30.0478C54 30.8181 53.6912 31.5568 53.1417 32.1015C52.5921 32.6462 51.8467 32.9522 51.0695 32.9522V32.9561ZM42.8405 32.9561H37.9563V48.191H42.8405V32.9522V32.9561ZM15.4029 32.9561H10.5187L10.5187 48.191H15.4029L15.4029 32.9522V32.9561ZM30.419 48.191V40.0198C30.419 39.0636 30.0357 38.1465 29.3535 37.4704C28.6713 36.7942 27.746 36.4144 26.7812 36.4144C25.8164 36.4144 24.8911 36.7942 24.2089 37.4704C23.5267 38.1465 23.1434 39.0636 23.1434 40.0198V48.191H30.419Z" fill="#161616"/>
</svg>
