<svg width="49" height="49" viewBox="0 0 49 49" fill="none" xmlns="http://www.w3.org/2000/svg">
<path d="M24.8703 0.170599C24.6464 0.0584142 24.3995 0 24.149 0C23.8986 0 23.6517 0.0584142 23.4278 0.170599L5.00379 9.3826C4.50949 9.62975 4.30938 10.231 4.55697 10.725L5.10351 11.8157C5.35076 12.3091 5.95097 12.5089 6.44463 12.2622L23.7019 3.63652C23.9834 3.49581 24.3147 3.49584 24.5962 3.63658L41.8534 12.2652C42.3471 12.512 42.9474 12.3122 43.1946 11.8188L43.7412 10.7281C43.9887 10.2341 43.7887 9.63295 43.2945 9.38577L24.8703 0.170599ZM45.0782 20.3192C45.0782 19.7669 45.5259 19.3192 46.0782 19.3192H47.2981C47.8504 19.3192 48.2981 18.8715 48.2981 18.3192V17.0993C48.2981 16.547 47.8504 16.0993 47.2981 16.0993L1 16.0993C0.447715 16.0993 0 16.547 0 17.0993L0 18.3192C0 18.8715 0.447715 19.3192 1 19.3192H2.21987C2.77216 19.3192 3.21987 19.7669 3.21987 20.3192L3.21987 44.0782C3.21987 44.6305 2.77216 45.0782 2.21987 45.0782H1C0.447716 45.0782 0 45.5259 0 46.0782L0 47.298C0 47.8503 0.447715 48.298 1 48.298H11.8795C12.4318 48.298 12.8795 47.8503 12.8795 47.298L12.8795 26.7589C12.8795 26.2066 13.3272 25.7589 13.8795 25.7589H27.9789C28.5311 25.7589 28.9789 26.2066 28.9789 26.7589L28.9789 47.298C28.9789 47.8503 29.4266 48.298 29.9789 48.298H47.2981C47.8504 48.298 48.2981 47.8503 48.2981 47.298V46.0782C48.2981 45.5259 47.8504 45.0782 47.2981 45.0782H46.0782C45.5259 45.0782 45.0782 44.6305 45.0782 44.0782L45.0782 20.3192Z" fill="#161616"/>
</svg>
