<svg width="27" height="27" viewBox="0 0 27 27" fill="none" xmlns="http://www.w3.org/2000/svg">
<path d="M21.9376 5.90631V10.9688C21.9376 11.1926 21.8487 11.4072 21.6904 11.5654C21.5322 11.7237 21.3176 11.8126 21.0938 11.8126C20.87 11.8126 20.6554 11.7237 20.4972 11.5654C20.339 11.4072 20.2501 11.1926 20.2501 10.9688V7.94819L16.6219 11.5763C16.4628 11.73 16.2497 11.8151 16.0284 11.8131C15.8072 11.8112 15.5956 11.7225 15.4391 11.566C15.2827 11.4096 15.194 11.198 15.1921 10.9767C15.1901 10.7555 15.2752 10.5424 15.4289 10.3833L19.057 6.75513H16.0364C15.8126 6.75513 15.598 6.66623 15.4397 6.508C15.2815 6.34976 15.1926 6.13515 15.1926 5.91138C15.1926 5.6876 15.2815 5.47299 15.4397 5.31476C15.598 5.15652 15.8126 5.06763 16.0364 5.06763H21.0989C21.3206 5.06767 21.5333 5.15496 21.6912 5.31063L21.6979 5.31738C21.8524 5.47397 21.9396 5.68469 21.9409 5.90463V5.91138L21.9376 5.90631ZM5.90631 15.1876C6.13008 15.1876 6.3447 15.2765 6.50293 15.4347C6.66116 15.5929 6.75006 15.8075 6.75006 16.0313V19.0519L10.3782 15.4238C10.5373 15.2701 10.7504 15.1851 10.9717 15.187C11.1929 15.1889 11.4045 15.2777 11.561 15.4341C11.7174 15.5905 11.8061 15.8022 11.8081 16.0234C11.81 16.2446 11.7249 16.4577 11.5712 16.6169L7.94312 20.245H10.9637C11.1875 20.245 11.4021 20.3339 11.5604 20.4921C11.7186 20.6504 11.8075 20.865 11.8075 21.0888C11.8075 21.3125 11.7186 21.5271 11.5604 21.6854C11.4021 21.8436 11.1875 21.9325 10.9637 21.9325H5.89618C5.67358 21.9312 5.46052 21.8419 5.30343 21.6842C5.14633 21.5265 5.05794 21.313 5.0575 21.0904V16.0279C5.0575 15.8042 5.14639 15.5896 5.30462 15.4313C5.46286 15.2731 5.67747 15.1842 5.90125 15.1842L5.90631 15.1876Z" fill="white"/>
<path fill-rule="evenodd" clip-rule="evenodd" d="M0 8.10007C0 5.26507 0 3.84756 0.551812 2.76756C1.03889 1.81729 1.81216 1.04402 2.76244 0.556939C3.84581 0.005127 5.25994 0.00512695 8.09494 0.00512695H18.8949C21.7299 0.00512695 23.1474 0.005127 24.2274 0.556939C25.1777 1.04402 25.951 1.81729 26.4381 2.76756C26.9899 3.85094 26.9899 5.26507 26.9899 8.10007V18.9001C26.9899 21.7351 26.9899 23.1526 26.4381 24.2326C25.9529 25.1842 25.1791 25.958 24.2274 26.4432C23.1441 26.995 21.7299 26.995 18.8949 26.995H8.09494C5.25994 26.995 3.84244 26.995 2.76244 26.4432C1.81079 25.958 1.03701 25.1842 0.551812 24.2326C0 23.1492 0 21.7351 0 18.9001V8.10007ZM8.1 1.68756H18.9C20.3462 1.68756 21.33 1.68756 22.0894 1.75169C22.8285 1.81075 23.2082 1.92044 23.4714 2.05544C24.1059 2.37944 24.6223 2.89581 24.9463 3.53031C25.0813 3.79356 25.191 4.17156 25.2501 4.91238C25.3125 5.67175 25.3142 6.6505 25.3142 8.10175V18.9018C25.3142 20.3479 25.3125 21.3318 25.2501 22.0911C25.1893 22.8303 25.0796 23.2099 24.9463 23.4732C24.6227 24.1082 24.1065 24.6245 23.4714 24.9481C23.2082 25.0831 22.8285 25.1928 22.0894 25.2518C21.33 25.3126 20.3512 25.3143 18.9 25.3143H8.1C6.65381 25.3143 5.67 25.3143 4.91063 25.2518C4.1715 25.1911 3.79181 25.0814 3.52856 24.9481C2.89354 24.6245 2.37726 24.1082 2.05369 23.4732C1.91869 23.2099 1.809 22.8303 1.74994 22.0894C1.6875 21.3301 1.68581 20.3513 1.68581 18.9001V8.10007C1.68581 6.65557 1.6875 5.67006 1.74994 4.91069C1.81069 4.17325 1.92038 3.79356 2.05369 3.53031C2.37769 2.89581 2.89406 2.37944 3.52856 2.05544C3.79181 1.92044 4.1715 1.81075 4.91063 1.75169C5.67 1.68756 6.64875 1.68756 8.1 1.68756Z" fill="white"/>
</svg>
