<svg width="21" height="17" viewBox="0 0 21 17" fill="none" xmlns="http://www.w3.org/2000/svg">
<path d="M3.43221 16.6945C2.87611 16.6945 2.35708 16.6203 1.87513 16.472C1.43025 16.3237 0.948294 16.0086 0.429265 15.5267C0.243898 14.8964 0.151215 14.2291 0.151215 13.5247C0.151215 11.1149 0.929757 8.85343 2.48684 6.74025C4.04393 4.58999 6.13858 2.66217 8.77079 0.956787L9.883 2.56948C8.6225 3.57047 7.54737 4.4973 6.65761 5.34999C5.80492 6.20268 4.95223 7.27781 4.09954 8.57538L5.10052 9.96564C5.50833 10.5588 5.84199 11.1149 6.1015 11.6339C6.36102 12.1159 6.49077 12.5979 6.49077 13.0798C6.49077 14.3032 6.17565 15.2115 5.5454 15.8047C4.95223 16.3979 4.24783 16.6945 3.43221 16.6945ZM14.5543 16.6945C13.9981 16.6945 13.4791 16.6203 12.9972 16.472C12.5523 16.3237 12.0703 16.0086 11.5513 15.5267C11.3659 14.8964 11.2733 14.2291 11.2733 13.5247C11.2733 11.1149 12.0518 8.85343 13.6089 6.74025C15.166 4.58999 17.2606 2.66217 19.8928 0.956787L21.005 2.56948C19.7445 3.57047 18.6694 4.4973 17.7796 5.34999C16.927 6.20268 16.0743 7.27781 15.2216 8.57538L16.2226 9.96564C16.6304 10.5588 16.964 11.1149 17.2235 11.6339C17.4831 12.1159 17.6128 12.5979 17.6128 13.0798C17.6128 14.3032 17.2977 15.2115 16.6674 15.8047C16.0743 16.3979 15.3699 16.6945 14.5543 16.6945Z" fill="#C62127"/>
</svg>
