<svg width="27" height="27" viewBox="0 0 27 27" fill="none" xmlns="http://www.w3.org/2000/svg">
<path d="M14.7956 0.20459C16.2862 0.208565 17.0428 0.216515 17.696 0.235065L17.9531 0.24434C18.2498 0.25494 18.5427 0.26819 18.8964 0.28409C20.3062 0.35034 21.2681 0.572942 22.1121 0.900218C22.9866 1.23677 23.7233 1.69257 24.46 2.42795C25.134 3.0901 25.6554 3.89138 25.9877 4.77586C26.3149 5.61989 26.5375 6.58185 26.6038 7.99298C26.6197 8.34543 26.6329 8.63826 26.6435 8.93638L26.6515 9.19343C26.6714 9.84534 26.6793 10.6019 26.682 12.0925L26.6833 13.081V14.8168C26.6865 15.7832 26.6764 16.7497 26.6528 17.7159L26.6449 17.9729C26.6343 18.2711 26.621 18.5639 26.6051 18.9163C26.5389 20.3275 26.3136 21.2881 25.9877 22.1334C25.6554 23.0179 25.134 23.8192 24.46 24.4814C23.7979 25.1554 22.9966 25.6768 22.1121 26.0091C21.2681 26.3364 20.3062 26.559 18.8964 26.6252L17.9531 26.665L17.696 26.6729C17.0428 26.6915 16.2862 26.7007 14.7956 26.7034L13.8072 26.7047H12.0728C11.1059 26.7081 10.1391 26.698 9.17247 26.6742L8.91542 26.6663C8.60089 26.6544 8.28642 26.6407 7.97204 26.6252C6.56227 26.559 5.60034 26.3364 4.75501 26.0091C3.87103 25.6766 3.07023 25.1552 2.40849 24.4814C1.734 23.8193 1.21218 23.018 0.879469 22.1334C0.552201 21.2894 0.329606 20.3275 0.263357 18.9163L0.223608 17.9729L0.216984 17.7159C0.192559 16.7497 0.181516 15.7832 0.183859 14.8168V12.0925C0.180192 11.1261 0.189909 10.1596 0.213009 9.19343L0.222283 8.93638C0.232883 8.63826 0.246133 8.34543 0.262032 7.99298C0.328281 6.58185 0.550876 5.62122 0.878144 4.77586C1.21163 3.89102 1.73437 3.08971 2.40981 2.42795C3.07118 1.75425 3.8715 1.23289 4.75501 0.900218C5.60034 0.572942 6.56095 0.35034 7.97204 0.28409C8.32448 0.26819 8.61863 0.25494 8.91542 0.24434L9.17247 0.23639C10.1386 0.212848 11.1051 0.202689 12.0715 0.205915L14.7956 0.20459ZM13.4336 6.82962C11.6766 6.82962 9.9915 7.52761 8.74909 8.77005C7.50669 10.0125 6.80872 11.6976 6.80872 13.4547C6.80872 15.2117 7.50669 16.8968 8.74909 18.1393C9.9915 19.3817 11.6766 20.0797 13.4336 20.0797C15.1906 20.0797 16.8757 19.3817 18.1181 18.1393C19.3605 16.8968 20.0584 15.2117 20.0584 13.4547C20.0584 11.6976 19.3605 10.0125 18.1181 8.77005C16.8757 7.52761 15.1906 6.82962 13.4336 6.82962ZM13.4336 9.47963C13.9556 9.47955 14.4725 9.58228 14.9548 9.78196C15.4371 9.98164 15.8753 10.2744 16.2445 10.6434C16.6136 11.0125 16.9065 11.4506 17.1063 11.9329C17.3062 12.4151 17.4091 12.932 17.4092 13.454C17.4092 13.976 17.3065 14.4929 17.1068 14.9752C16.9072 15.4575 16.6144 15.8958 16.2454 16.2649C15.8764 16.6341 15.4382 16.927 14.956 17.1268C14.4738 17.3267 13.9569 17.4296 13.4349 17.4297C12.3807 17.4297 11.3697 17.0109 10.6242 16.2654C9.87877 15.52 9.45999 14.5089 9.45999 13.4547C9.45999 12.4004 9.87877 11.3894 10.6242 10.6439C11.3697 9.89843 12.3807 9.47963 13.4349 9.47963M20.391 4.84211C19.9517 4.84211 19.5305 5.01661 19.2199 5.32722C18.9093 5.63783 18.7348 6.0591 18.7348 6.49837C18.7348 6.93764 18.9093 7.35891 19.2199 7.66952C19.5305 7.98013 19.9517 8.15463 20.391 8.15463C20.8303 8.15463 21.2515 7.98013 21.5621 7.66952C21.8727 7.35891 22.0472 6.93764 22.0472 6.49837C22.0472 6.0591 21.8727 5.63783 21.5621 5.32722C21.2515 5.01661 20.8303 4.84211 20.391 4.84211Z" fill="black"/>
</svg>
