<svg width="29" height="36" viewBox="0 0 29 36" fill="none" xmlns="http://www.w3.org/2000/svg">
<path d="M4.13332 4.40902C6.83504 1.58019 10.4759 -0.00376222 14.268 6.71061e-06C18.0659 6.71061e-06 21.7116 1.58306 24.4026 4.40902C26.8395 6.9647 28.1089 9.8256 28.4444 12.7968C28.7782 15.7423 28.1815 18.6988 27.0435 21.4714C24.7848 26.9873 20.2952 32.003 15.9888 35.2666C15.4869 35.6484 14.8851 35.8537 14.268 35.8537C13.6508 35.8537 13.0491 35.6484 12.5472 35.2666C8.24079 32.003 3.75111 26.9855 1.4907 21.4714C0.354437 18.6988 -0.240498 15.7423 0.0915592 12.795C0.427076 9.8256 1.6965 6.96654 4.13332 4.40902ZM9.51195 14.2493C9.51195 12.9083 10.013 11.6223 10.905 10.674C11.7969 9.72582 13.0066 9.19311 14.268 9.19311C15.5294 9.19311 16.7391 9.72582 17.631 10.674C18.5229 11.6223 19.024 12.9083 19.024 14.2493C19.024 15.5903 18.5229 16.8764 17.631 17.8246C16.7391 18.7728 15.5294 19.3055 14.268 19.3055C13.0066 19.3055 11.7969 18.7728 10.905 17.8246C10.013 16.8764 9.51195 15.5903 9.51195 14.2493Z" fill="#C62127"/>
<path d="M14.268 0.753235H14.2672C10.6885 0.749678 7.24266 2.24405 4.67821 4.92907C2.35187 7.37082 1.15662 10.0781 0.840052 12.8793L14.268 0.753235ZM14.268 0.753235C17.854 0.753235 21.3043 2.24762 23.8572 4.92845L23.8575 4.9288M14.268 0.753235L23.8575 4.9288M23.8575 4.9288C26.1839 7.36865 27.3793 10.0778 27.6959 12.8813L27.696 12.8816M23.8575 4.9288L27.696 12.8816M27.696 12.8816C28.012 15.6704 27.4498 18.4977 26.3467 21.1854L26.3465 21.186M27.696 12.8816L26.3465 21.186M26.3465 21.186C24.1518 26.5455 19.7638 31.4606 15.5338 34.6663L15.5328 34.6671M26.3465 21.186L15.5328 34.6671M15.5328 34.6671C15.1589 34.9515 14.7166 35.1004 14.268 35.1004C13.8194 35.1004 13.3771 34.9515 13.0032 34.6671L13.0021 34.6663M15.5328 34.6671L13.0021 34.6663M13.0021 34.6663C8.77226 31.4607 4.38409 26.5437 2.18767 21.1858L13.0021 34.6663ZM2.18764 21.1857C1.0863 18.4983 0.52561 15.6707 0.840025 12.8795L2.18764 21.1857ZM10.2652 14.2493C10.2652 13.0937 10.6974 11.994 11.4536 11.1901C12.2083 10.3878 13.2218 9.94634 14.268 9.94634C15.3142 9.94634 16.3276 10.3878 17.0823 11.1901C17.8385 11.994 18.2708 13.0937 18.2708 14.2493C18.2708 15.4049 17.8385 16.5046 17.0823 17.3085C16.3276 18.1109 15.3142 18.5523 14.268 18.5523C13.2218 18.5523 12.2083 18.1109 11.4536 17.3085C10.6974 16.5046 10.2652 15.4049 10.2652 14.2493ZM10.3563 10.158C9.32865 11.2505 8.75872 12.7229 8.75872 14.2493C8.75872 15.7757 9.32865 17.2482 10.3563 18.3407C11.3854 19.4348 12.7914 20.0588 14.268 20.0588C15.7445 20.0588 17.1505 19.4348 18.1796 18.3407C19.2073 17.2482 19.7772 15.7757 19.7772 14.2493C19.7772 12.7229 19.2073 11.2505 18.1796 10.158C17.1505 9.06388 15.7445 8.43989 14.268 8.43989C12.7914 8.43989 11.3854 9.06388 10.3563 10.158Z" stroke="black" stroke-opacity="0.04" stroke-width="1.50646"/>
</svg>
