<svg width="128" height="49" viewBox="0 0 128 49" fill="none" xmlns="http://www.w3.org/2000/svg">
<path d="M6.272 27.32C2.88 27.32 1.088 25.272 1.088 21.816V9.784C1.088 6.328 2.88 4.28 6.272 4.28C9.664 4.28 11.456 6.328 11.456 9.784V12.152H8.128V9.56C8.128 8.088 7.424 7.48 6.368 7.48C5.312 7.48 4.608 8.088 4.608 9.56V22.072C4.608 23.544 5.312 24.12 6.368 24.12C7.424 24.12 8.128 23.544 8.128 22.072V18.648H11.456V21.816C11.456 25.272 9.664 27.32 6.272 27.32ZM13.562 27V4.6H18.746C22.266 4.6 23.994 6.552 23.994 10.136V12.344C23.994 15.928 22.266 17.88 18.746 17.88H17.082V27H13.562ZM17.082 14.68H18.746C19.866 14.68 20.474 14.168 20.474 12.568V9.912C20.474 8.312 19.866 7.8 18.746 7.8H17.082V14.68ZM25.9058 27V4.6H29.4258V13.72H33.2018V4.6H36.7218V27H33.2018V16.92H29.4258V27H25.9058ZM39.3433 27V4.6H48.6553V7.8H42.8633V14.04H47.4073V17.24H42.8633V27H39.3433ZM51.9395 27L49.6675 4.6H53.0595L54.6275 21.816H54.6915L56.3555 4.6H60.1955L61.8595 21.816H61.9235L63.4915 4.6H66.5315L64.2595 27H59.8755L58.2755 11.896H58.2115L56.6115 27H51.9395Z" fill="#161616"/>
<path d="M1.872 42.687L1.976 42.674V46.6H1.001V37.5H1.898L1.963 38.709C2.16233 38.345 2.457 38.0373 2.847 37.786C3.237 37.5347 3.72667 37.409 4.316 37.409C4.87933 37.409 5.38633 37.5477 5.837 37.825C6.28767 38.0937 6.643 38.4793 6.903 38.982C7.163 39.476 7.293 40.0653 7.293 40.75C7.293 41.426 7.16733 42.0153 6.916 42.518C6.67333 43.012 6.32667 43.3977 5.876 43.675C5.434 43.9523 4.914 44.091 4.316 44.091C3.692 44.091 3.17633 43.9567 2.769 43.688C2.36167 43.4193 2.06267 43.0857 1.872 42.687ZM6.24 40.75C6.24 40.0047 6.045 39.4153 5.655 38.982C5.27367 38.54 4.758 38.319 4.108 38.319C3.70067 38.319 3.33233 38.4143 3.003 38.605C2.68233 38.7957 2.431 39.073 2.249 39.437C2.067 39.801 1.976 40.2387 1.976 40.75C1.976 41.2527 2.067 41.686 2.249 42.05C2.431 42.414 2.68233 42.6957 3.003 42.895C3.33233 43.0857 3.70067 43.181 4.108 43.181C4.758 43.181 5.27367 42.9643 5.655 42.531C6.045 42.089 6.24 41.4953 6.24 40.75ZM11.6928 44.091C11.0775 44.091 10.5271 43.9567 10.0418 43.688C9.55646 43.4193 9.17512 43.038 8.89779 42.544C8.62046 42.0413 8.48179 41.4477 8.48179 40.763C8.48179 40.0697 8.62046 39.4717 8.89779 38.969C9.18379 38.4663 9.56946 38.0807 10.0548 37.812C10.5488 37.5433 11.1035 37.409 11.7188 37.409C12.3341 37.409 12.8845 37.5433 13.3698 37.812C13.8638 38.0807 14.2495 38.4663 14.5268 38.969C14.8128 39.463 14.9558 40.0523 14.9558 40.737C14.9558 41.4303 14.8128 42.0283 14.5268 42.531C14.2408 43.0337 13.8508 43.4193 13.3568 43.688C12.8628 43.9567 12.3081 44.091 11.6928 44.091ZM11.6798 43.168C12.0611 43.168 12.4208 43.0857 12.7588 42.921C13.0968 42.7477 13.3698 42.4833 13.5778 42.128C13.7945 41.764 13.9028 41.3047 13.9028 40.75C13.9028 40.1867 13.7988 39.7273 13.5908 39.372C13.3828 39.0167 13.1098 38.7567 12.7718 38.592C12.4425 38.4187 12.0871 38.332 11.7058 38.332C11.3245 38.332 10.9691 38.4187 10.6398 38.592C10.3105 38.7567 10.0418 39.021 9.83379 39.385C9.63446 39.7403 9.53479 40.1953 9.53479 40.75C9.53479 41.3133 9.63446 41.7727 9.83379 42.128C10.0331 42.4833 10.2931 42.7477 10.6138 42.921C10.9431 43.0857 11.2985 43.168 11.6798 43.168ZM18.8148 44H17.9308L15.8898 37.5H16.8778L18.3728 42.791L20.0498 37.5H20.9338L22.5848 42.778L24.0668 37.5H25.0288L23.0008 44H22.1038L20.4658 38.956L18.8148 44ZM29.0835 44.091C28.4769 44.091 27.9352 43.9437 27.4585 43.649C26.9905 43.3543 26.6222 42.9513 26.3535 42.44C26.0849 41.9287 25.9505 41.3437 25.9505 40.685C25.9505 40.0523 26.0849 39.489 26.3535 38.995C26.6222 38.501 26.9905 38.1153 27.4585 37.838C27.9265 37.552 28.4595 37.409 29.0575 37.409C29.6469 37.409 30.1712 37.539 30.6305 37.799C31.0985 38.059 31.4625 38.4187 31.7225 38.878C31.9825 39.3373 32.1039 39.8617 32.0865 40.451C32.0865 40.5463 32.0822 40.646 32.0735 40.75C32.0649 40.854 32.0562 40.9667 32.0475 41.088H27.0165C27.0339 41.4953 27.1335 41.855 27.3155 42.167C27.4975 42.479 27.7359 42.726 28.0305 42.908C28.3339 43.0813 28.6762 43.168 29.0575 43.168C29.5602 43.168 29.9849 43.0727 30.3315 42.882C30.6869 42.6913 30.9425 42.4183 31.0985 42.063L31.9435 42.401C31.6835 42.947 31.3065 43.3673 30.8125 43.662C30.3185 43.948 29.7422 44.091 29.0835 44.091ZM31.0205 40.243C31.0292 39.8703 30.9469 39.541 30.7735 39.255C30.6089 38.969 30.3749 38.7437 30.0715 38.579C29.7682 38.4143 29.4172 38.332 29.0185 38.332C28.6719 38.332 28.3555 38.4143 28.0695 38.579C27.7835 38.7437 27.5452 38.9733 27.3545 39.268C27.1725 39.554 27.0642 39.879 27.0295 40.243H31.0205ZM33.6914 37.5H34.5884L34.6404 38.449C34.8138 38.215 35.0218 38.0157 35.2644 37.851C35.5158 37.6863 35.7888 37.5737 36.0834 37.513C36.3868 37.4437 36.7074 37.4393 37.0454 37.5V38.475C36.6814 38.4057 36.3521 38.4057 36.0574 38.475C35.7714 38.5443 35.5244 38.6743 35.3164 38.865C35.1084 39.0557 34.9481 39.2983 34.8354 39.593C34.7228 39.879 34.6664 40.2127 34.6664 40.594V44H33.6914V37.5ZM41.106 44.091C40.4993 44.091 39.9577 43.9437 39.481 43.649C39.013 43.3543 38.6447 42.9513 38.376 42.44C38.1073 41.9287 37.973 41.3437 37.973 40.685C37.973 40.0523 38.1073 39.489 38.376 38.995C38.6447 38.501 39.013 38.1153 39.481 37.838C39.949 37.552 40.482 37.409 41.08 37.409C41.6693 37.409 42.1937 37.539 42.653 37.799C43.121 38.059 43.485 38.4187 43.745 38.878C44.005 39.3373 44.1263 39.8617 44.109 40.451C44.109 40.5463 44.1047 40.646 44.096 40.75C44.0873 40.854 44.0787 40.9667 44.07 41.088H39.039C39.0563 41.4953 39.156 41.855 39.338 42.167C39.52 42.479 39.7583 42.726 40.053 42.908C40.3563 43.0813 40.6987 43.168 41.08 43.168C41.5827 43.168 42.0073 43.0727 42.354 42.882C42.7093 42.6913 42.965 42.4183 43.121 42.063L43.966 42.401C43.706 42.947 43.329 43.3673 42.835 43.662C42.341 43.948 41.7647 44.091 41.106 44.091ZM43.043 40.243C43.0517 39.8703 42.9693 39.541 42.796 39.255C42.6313 38.969 42.3973 38.7437 42.094 38.579C41.7907 38.4143 41.4397 38.332 41.041 38.332C40.6943 38.332 40.378 38.4143 40.092 38.579C39.806 38.7437 39.5677 38.9733 39.377 39.268C39.195 39.554 39.0867 39.879 39.052 40.243H43.043ZM50.7319 38.813L50.6279 38.826V34.64H51.6029V44H50.7059L50.6409 42.791C50.4416 43.155 50.1426 43.4627 49.7439 43.714C49.3539 43.9653 48.8686 44.091 48.2879 44.091C47.6899 44.091 47.1656 43.9567 46.7149 43.688C46.2729 43.4107 45.9262 43.0207 45.6749 42.518C45.4322 42.0153 45.3109 41.426 45.3109 40.75C45.3109 40.074 45.4322 39.489 45.6749 38.995C45.9262 38.4923 46.2729 38.1023 46.7149 37.825C47.1656 37.5477 47.6899 37.409 48.2879 37.409C48.9032 37.409 49.4146 37.5433 49.8219 37.812C50.2292 38.0807 50.5326 38.4143 50.7319 38.813ZM46.3639 40.75C46.3639 41.4953 46.5546 42.089 46.9359 42.531C47.3172 42.9643 47.8372 43.181 48.4959 43.181C48.9032 43.181 49.2672 43.0857 49.5879 42.895C49.9086 42.7043 50.1599 42.427 50.3419 42.063C50.5326 41.699 50.6279 41.2613 50.6279 40.75C50.6279 40.2387 50.5326 39.8053 50.3419 39.45C50.1599 39.086 49.9086 38.8087 49.5879 38.618C49.2672 38.4187 48.9032 38.319 48.4959 38.319C47.8459 38.319 47.3259 38.54 46.9359 38.982C46.5546 39.4153 46.3639 40.0047 46.3639 40.75ZM58.1122 38.813C58.3029 38.4143 58.6019 38.0807 59.0092 37.812C59.4166 37.5433 59.9322 37.409 60.5562 37.409C61.1542 37.409 61.6742 37.5477 62.1162 37.825C62.5669 38.1023 62.9136 38.4923 63.1562 38.995C63.4076 39.489 63.5332 40.074 63.5332 40.75C63.5332 41.426 63.4076 42.0153 63.1562 42.518C62.9049 43.0207 62.5539 43.4107 62.1032 43.688C61.6612 43.9567 61.1456 44.091 60.5562 44.091C59.9669 44.091 59.4772 43.9653 59.0872 43.714C58.6972 43.4627 58.4026 43.155 58.2032 42.791L58.1382 44H57.2412V34.64H58.2162V38.826L58.1122 38.813ZM62.4802 40.75C62.4802 40.0047 62.2852 39.4153 61.8952 38.982C61.5139 38.54 60.9982 38.319 60.3482 38.319C59.9409 38.319 59.5726 38.4187 59.2432 38.618C58.9226 38.8087 58.6712 39.086 58.4892 39.45C58.3072 39.8053 58.2162 40.2387 58.2162 40.75C58.2162 41.2613 58.3072 41.699 58.4892 42.063C58.6712 42.427 58.9226 42.7043 59.2432 42.895C59.5726 43.0857 59.9409 43.181 60.3482 43.181C60.9982 43.181 61.5139 42.9643 61.8952 42.531C62.2852 42.089 62.4802 41.4953 62.4802 40.75ZM69.532 37.5H70.546L66.828 46.6H65.892L66.997 43.909L64.371 37.5H65.437L67.517 42.752L69.532 37.5ZM79.9576 38.345L76.3046 43.09H79.9966V44H75.0826V43.155L78.7356 38.41H75.1216V37.5H79.9576V38.345ZM85.7233 44L85.6453 42.83C85.4633 43.2287 85.1947 43.5407 84.8393 43.766C84.484 43.9827 84.0333 44.091 83.4873 44.091C83.0193 44.091 82.6207 44.0173 82.2913 43.87C81.962 43.7227 81.7063 43.5147 81.5243 43.246C81.351 42.9687 81.2643 42.6437 81.2643 42.271C81.2643 41.725 81.468 41.2787 81.8753 40.932C82.2827 40.5767 82.872 40.36 83.6433 40.282L85.6453 40.061V39.541C85.6453 39.177 85.511 38.8867 85.2423 38.67C84.9737 38.4447 84.6097 38.332 84.1503 38.332C83.6997 38.332 83.3227 38.436 83.0193 38.644C82.7247 38.852 82.521 39.151 82.4083 39.541L81.5243 39.229C81.6977 38.657 82.014 38.2107 82.4733 37.89C82.9413 37.5693 83.509 37.409 84.1763 37.409C84.9477 37.409 85.5457 37.6083 85.9703 38.007C86.4037 38.397 86.6203 38.93 86.6203 39.606V44H85.7233ZM85.6453 40.893L83.6303 41.127C83.197 41.179 82.8677 41.3003 82.6423 41.491C82.417 41.673 82.3043 41.9157 82.3043 42.219C82.3043 42.5223 82.4127 42.765 82.6293 42.947C82.8547 43.129 83.1753 43.22 83.5913 43.22C84.068 43.22 84.458 43.1247 84.7613 42.934C85.0647 42.7433 85.2857 42.4877 85.4243 42.167C85.5717 41.8377 85.6453 41.4823 85.6453 41.101V40.893ZM88.5225 34.64H89.4975V44H88.5225V34.64ZM95.5495 44L95.4715 42.83C95.2895 43.2287 95.0208 43.5407 94.6655 43.766C94.3102 43.9827 93.8595 44.091 93.3135 44.091C92.8455 44.091 92.4468 44.0173 92.1175 43.87C91.7882 43.7227 91.5325 43.5147 91.3505 43.246C91.1772 42.9687 91.0905 42.6437 91.0905 42.271C91.0905 41.725 91.2942 41.2787 91.7015 40.932C92.1088 40.5767 92.6982 40.36 93.4695 40.282L95.4715 40.061V39.541C95.4715 39.177 95.3372 38.8867 95.0685 38.67C94.7998 38.4447 94.4358 38.332 93.9765 38.332C93.5258 38.332 93.1488 38.436 92.8455 38.644C92.5508 38.852 92.3472 39.151 92.2345 39.541L91.3505 39.229C91.5238 38.657 91.8402 38.2107 92.2995 37.89C92.7675 37.5693 93.3352 37.409 94.0025 37.409C94.7738 37.409 95.3718 37.6083 95.7965 38.007C96.2298 38.397 96.4465 38.93 96.4465 39.606V44H95.5495ZM95.4715 40.893L93.4565 41.127C93.0232 41.179 92.6938 41.3003 92.4685 41.491C92.2432 41.673 92.1305 41.9157 92.1305 42.219C92.1305 42.5223 92.2388 42.765 92.4555 42.947C92.6808 43.129 93.0015 43.22 93.4175 43.22C93.8942 43.22 94.2842 43.1247 94.5875 42.934C94.8908 42.7433 95.1118 42.4877 95.2505 42.167C95.3978 41.8377 95.4715 41.4823 95.4715 41.101V40.893ZM98.3487 37.5H99.2457L99.2977 38.423C99.5057 38.1023 99.7787 37.8553 100.117 37.682C100.455 37.5 100.849 37.409 101.3 37.409C101.794 37.409 102.227 37.5173 102.6 37.734C102.972 37.942 103.263 38.2583 103.471 38.683C103.679 39.099 103.783 39.6233 103.783 40.256V44H102.808V40.373C102.808 39.697 102.66 39.1857 102.366 38.839C102.08 38.4837 101.664 38.306 101.118 38.306C100.554 38.306 100.112 38.4923 99.7917 38.865C99.4797 39.2377 99.3237 39.788 99.3237 40.516V44H98.3487V37.5ZM110.692 38.813L110.588 38.826V34.64H111.563V44H110.666L110.601 42.791C110.402 43.155 110.103 43.4627 109.704 43.714C109.314 43.9653 108.829 44.091 108.248 44.091C107.65 44.091 107.126 43.9567 106.675 43.688C106.233 43.4107 105.886 43.0207 105.635 42.518C105.392 42.0153 105.271 41.426 105.271 40.75C105.271 40.074 105.392 39.489 105.635 38.995C105.886 38.4923 106.233 38.1023 106.675 37.825C107.126 37.5477 107.65 37.409 108.248 37.409C108.863 37.409 109.375 37.5433 109.782 37.812C110.189 38.0807 110.493 38.4143 110.692 38.813ZM106.324 40.75C106.324 41.4953 106.515 42.089 106.896 42.531C107.277 42.9643 107.797 43.181 108.456 43.181C108.863 43.181 109.227 43.0857 109.548 42.895C109.869 42.7043 110.12 42.427 110.302 42.063C110.493 41.699 110.588 41.2613 110.588 40.75C110.588 40.2387 110.493 39.8053 110.302 39.45C110.12 39.086 109.869 38.8087 109.548 38.618C109.227 38.4187 108.863 38.319 108.456 38.319C107.806 38.319 107.286 38.54 106.896 38.982C106.515 39.4153 106.324 40.0047 106.324 40.75ZM116.366 44.091C115.75 44.091 115.2 43.9567 114.715 43.688C114.229 43.4193 113.848 43.038 113.571 42.544C113.293 42.0413 113.155 41.4477 113.155 40.763C113.155 40.0697 113.293 39.4717 113.571 38.969C113.857 38.4663 114.242 38.0807 114.728 37.812C115.222 37.5433 115.776 37.409 116.392 37.409C117.007 37.409 117.557 37.5433 118.043 37.812C118.537 38.0807 118.922 38.4663 119.2 38.969C119.486 39.463 119.629 40.0523 119.629 40.737C119.629 41.4303 119.486 42.0283 119.2 42.531C118.914 43.0337 118.524 43.4193 118.03 43.688C117.536 43.9567 116.981 44.091 116.366 44.091ZM116.353 43.168C116.734 43.168 117.094 43.0857 117.432 42.921C117.77 42.7477 118.043 42.4833 118.251 42.128C118.467 41.764 118.576 41.3047 118.576 40.75C118.576 40.1867 118.472 39.7273 118.264 39.372C118.056 39.0167 117.783 38.7567 117.445 38.592C117.115 38.4187 116.76 38.332 116.379 38.332C115.997 38.332 115.642 38.4187 115.313 38.592C114.983 38.7567 114.715 39.021 114.507 39.385C114.307 39.7403 114.208 40.1953 114.208 40.75C114.208 41.3133 114.307 41.7727 114.507 42.128C114.706 42.4833 114.966 42.7477 115.287 42.921C115.616 43.0857 115.971 43.168 116.353 43.168Z" fill="#161616"/>
</svg>
