<svg width="44" height="36" viewBox="0 0 44 36" fill="none" xmlns="http://www.w3.org/2000/svg">
<path d="M9.33236 9.1227C9.06306 9.392 8.91176 9.75725 8.91176 10.1381C8.91176 10.5189 9.06306 10.8842 9.33236 11.1535C9.60166 11.4228 9.9669 11.5741 10.3478 11.5741H28.6239C29.0048 11.5741 29.37 11.4228 29.6393 11.1535C29.9086 10.8842 30.0599 10.5189 30.0599 10.1381C30.0599 9.75725 29.9086 9.392 29.6393 9.1227C29.37 8.8534 29.0048 8.70211 28.6239 8.70211H10.3478C9.9669 8.70211 9.60166 8.8534 9.33236 9.1227ZM23.4022 16.5348C23.0213 16.5348 22.6561 16.6861 22.3868 16.9554C22.1175 17.2247 21.9662 17.5899 21.9662 17.9707C21.9662 18.3516 22.1175 18.7168 22.3868 18.9861C22.6561 19.2554 23.0213 19.4067 23.4022 19.4067H28.6239C29.0048 19.4067 29.37 19.2554 29.6393 18.9861C29.9086 18.7168 30.0599 18.3516 30.0599 17.9707C30.0599 17.5899 29.9086 17.2247 29.6393 16.9554C29.37 16.6861 29.0048 16.5348 28.6239 16.5348H23.4022ZM22.3868 24.788C22.1175 25.0573 21.9662 25.4226 21.9662 25.8034C21.9662 26.1842 22.1175 26.5495 22.3868 26.8188C22.6561 27.0881 23.0213 27.2394 23.4022 27.2394H28.6239C29.0048 27.2394 29.37 27.0881 29.6393 26.8188C29.9086 26.5495 30.0599 26.1842 30.0599 25.8034C30.0599 25.4226 29.9086 25.0573 29.6393 24.788C29.37 24.5187 29.0048 24.3674 28.6239 24.3674H23.4022C23.0213 24.3674 22.6561 24.5187 22.3868 24.788ZM10.3478 16.5348C9.9669 16.5348 9.60166 16.6861 9.33236 16.9554C9.06306 17.2247 8.91176 17.5899 8.91176 17.9707V25.8034C8.91176 26.1842 9.06306 26.5495 9.33236 26.8188C9.60166 27.0881 9.9669 27.2394 10.3478 27.2394H18.1804C18.5613 27.2394 18.9265 27.0881 19.1958 26.8188C19.4651 26.5495 19.6164 26.1842 19.6164 25.8034V17.9707C19.6164 17.5899 19.4651 17.2247 19.1958 16.9554C18.9265 16.6861 18.5613 16.5348 18.1804 16.5348H10.3478ZM11.7837 24.3674V19.4067H16.7444V24.3674H11.7837ZM2.64677 2.43711C1.64301 3.44087 1.07911 4.80225 1.07911 6.22177V28.4143C1.07911 30.18 1.78055 31.8735 3.02912 33.122C4.27769 34.3706 5.97112 35.072 7.73687 35.072H36.4566C38.2223 35.072 39.9158 34.3706 41.1643 33.122C42.4129 31.8735 43.1143 30.18 43.1143 28.4143V14.0544C43.1143 12.6349 42.5504 11.2735 41.5467 10.2698C40.5737 9.29682 39.2648 8.73714 37.8926 8.7037V6.22177C37.8926 4.80225 37.3287 3.44087 36.3249 2.43711C35.3212 1.43336 33.9598 0.869456 32.5403 0.869456H6.43142C5.0119 0.869456 3.65052 1.43336 2.64677 2.43711ZM34.2941 4.4679C34.7593 4.93306 35.0206 5.56394 35.0206 6.22177V28.4143C35.0206 28.7951 35.1719 29.1604 35.4412 29.4297C35.7105 29.699 36.0757 29.8503 36.4566 29.8503C36.8374 29.8503 37.2027 29.699 37.472 29.4297C37.7413 29.1604 37.8926 28.7951 37.8926 28.4143V11.5775C38.5029 11.6097 39.0816 11.8663 39.5159 12.3006C39.9811 12.7657 40.2424 13.3966 40.2424 14.0544V28.4143C40.2424 29.4183 39.8435 30.3813 39.1335 31.0912C38.4236 31.8012 37.4606 32.2001 36.4566 32.2001H7.73687C6.73281 32.2001 5.76989 31.8012 5.05991 31.0912C4.34994 30.3813 3.95108 29.4183 3.95108 28.4143V6.22177C3.95108 5.56394 4.21241 4.93306 4.67756 4.4679C5.14271 4.00275 5.7736 3.74143 6.43142 3.74143H32.5403C33.1981 3.74143 33.829 4.00275 34.2941 4.4679Z" fill="black" stroke="black" stroke-width="0.261088"/>
</svg>
