<svg width="7" height="7" viewBox="0 0 7 7" fill="none" xmlns="http://www.w3.org/2000/svg">
<path d="M5.14599 2.96131L3.37358 1.1889C3.29184 1.10427 3.24662 0.990929 3.24764 0.873278C3.24866 0.755628 3.29585 0.643086 3.37905 0.559891C3.46224 0.476697 3.57478 0.429506 3.69243 0.428484C3.81008 0.427461 3.92343 0.472689 4.00806 0.554425L6.54641 3.09278C6.58823 3.13436 6.62141 3.18379 6.64405 3.23823C6.66669 3.29267 6.67835 3.35106 6.67835 3.41002C6.67835 3.46898 6.66669 3.52737 6.64405 3.58181C6.62141 3.63625 6.58823 3.68568 6.54641 3.72726L4.00806 6.26561C3.96666 6.30847 3.91715 6.34265 3.86241 6.36617C3.80766 6.38969 3.74878 6.40207 3.6892 6.40258C3.62962 6.4031 3.57054 6.39175 3.51539 6.36919C3.46025 6.34663 3.41015 6.31331 3.36802 6.27118C3.32589 6.22905 3.29257 6.17895 3.27001 6.1238C3.24745 6.06866 3.23609 6.00957 3.23661 5.94999C3.23713 5.89041 3.24951 5.83153 3.27302 5.77679C3.29654 5.72204 3.33072 5.67253 3.37358 5.63114L5.14599 3.85873L0.844646 3.85873C0.72564 3.85873 0.611509 3.81146 0.527359 3.72731C0.44321 3.64316 0.395935 3.52903 0.395935 3.41002C0.395935 3.29101 0.44321 3.17688 0.527359 3.09273C0.611509 3.00858 0.72564 2.96131 0.844646 2.96131L5.14599 2.96131Z" fill="black"/>
</svg>
