<svg width="41" height="34" viewBox="0 0 41 34" fill="none" xmlns="http://www.w3.org/2000/svg">
<path d="M20.9092 4.85358C20.3683 4.85346 19.8385 4.99815 19.3814 5.27079C18.9244 5.54344 18.5588 5.93283 18.3273 6.39367C18.0784 6.86916 17.6412 7.2333 17.1099 7.40746C16.5787 7.58162 15.9961 7.55183 15.488 7.32451C14.9798 7.0972 14.5869 6.69061 14.3941 6.19253C14.2012 5.69445 14.2239 5.14485 14.4573 4.66241C14.9351 3.71315 15.642 2.88253 16.5214 2.23701C17.4008 1.5915 18.4283 1.14902 19.5217 0.945005C20.615 0.740988 21.7439 0.781093 22.8178 1.06211C23.8918 1.34313 24.8811 1.85725 25.7064 2.56334C26.5318 3.26942 27.1704 4.14785 27.5711 5.12832C27.9718 6.10879 28.1234 7.16406 28.0138 8.20968C27.9043 9.2553 27.5366 10.2622 26.9402 11.1499C26.3438 12.0375 25.5353 12.7812 24.5793 13.3214C24.1222 13.5681 23.708 13.8796 23.3512 14.2449C23.0827 14.5411 23.0513 14.7188 23.0513 14.7996C23.0513 14.9881 23.1598 15.1658 23.3369 15.2573L37.926 22.8986C39.048 23.4849 39.9316 24.4061 40.4378 25.5174C40.944 26.6286 41.044 27.867 40.7223 29.0377C40.4005 30.2085 39.6752 31.2453 38.6603 31.985C37.6454 32.7248 36.3985 33.1257 35.1156 33.1246H6.69148C5.41021 33.1241 4.16535 32.7228 3.1521 31.9835C2.13885 31.2442 1.41453 30.2089 1.09272 29.0397C0.770911 27.8706 0.869816 26.6338 1.37392 25.5234C1.87803 24.413 2.75883 23.4916 3.8782 22.9039L14.8714 17.142C15.1177 17.0057 15.3905 16.9172 15.6736 16.8817C15.9567 16.8462 16.2445 16.8645 16.5201 16.9354C16.7956 17.0063 17.0533 17.1284 17.2781 17.2946C17.5028 17.4608 17.69 17.6677 17.8287 17.9031C17.9673 18.1385 18.0547 18.3977 18.0855 18.6654C18.1164 18.933 18.0901 19.2038 18.0083 19.4618C17.9265 19.7198 17.7908 19.9598 17.6091 20.1676C17.4275 20.3754 17.2036 20.5468 16.9506 20.6719L5.96031 26.4338C5.66812 26.5853 5.43783 26.8243 5.30588 27.113C5.17392 27.4017 5.14782 27.7236 5.23171 28.0279C5.31559 28.3322 5.50467 28.6014 5.76904 28.793C6.03342 28.9846 6.35801 29.0877 6.69148 29.0859H35.1156C35.4487 29.0864 35.7726 28.9825 36.0363 28.7906C36.3 28.5986 36.4885 28.3295 36.5722 28.0255C36.6559 27.7215 36.6301 27.4 36.4988 27.1113C36.3674 26.8227 36.1381 26.5834 35.8467 26.4311L21.252 18.7871C20.4994 18.3909 19.8723 17.8129 19.4351 17.1126C18.9979 16.4123 18.7664 15.6149 18.7643 14.8023C18.7643 13.4803 19.3783 12.4114 20.0781 11.6332C20.7636 10.8659 21.6204 10.2816 22.3716 9.8562C22.9073 9.55382 23.3232 9.09425 23.5556 8.54784C23.7879 8.00142 23.8239 7.39828 23.658 6.83076C23.4921 6.26323 23.1335 5.7626 22.637 5.40551C22.1406 5.04842 21.5337 4.85455 20.9092 4.85358Z" fill="black"/>
</svg>
