<svg width="30" height="29" viewBox="0 0 30 29" fill="none" xmlns="http://www.w3.org/2000/svg">
<path d="M23.4869 12.8649C18.8613 10.1185 11.1279 9.82938 6.71917 11.2026C5.99643 11.4194 5.27368 10.9858 5.05685 10.3353C4.84003 9.61255 5.27368 8.8898 5.92415 8.67298C11.0557 7.15521 19.5118 7.44431 24.8602 10.6244C25.5106 10.9858 25.7275 11.8531 25.3661 12.5035C25.0047 13.0095 24.1374 13.2263 23.4869 12.8649ZM23.3424 16.9123C22.981 17.4182 22.3305 17.6351 21.8246 17.2737C17.9218 14.8886 11.9952 14.1659 7.44192 15.6114C6.86372 15.7559 6.21325 15.4668 6.0687 14.8886C5.92415 14.3104 6.21325 13.6599 6.79145 13.5154C12.0675 11.9253 18.5722 12.7204 23.0533 15.4668C23.4869 15.6836 23.7038 16.4064 23.3424 16.9123ZM21.6078 20.8874C21.3187 21.3211 20.8128 21.4656 20.3791 21.1765C16.9822 19.0806 12.718 18.6469 7.65875 19.8033C7.15282 19.9479 6.71917 19.5865 6.57463 19.1528C6.43008 18.6469 6.79145 18.2133 7.2251 18.0687C12.718 16.84 17.4881 17.346 21.2464 19.6588C21.7523 19.8756 21.8246 20.4538 21.6078 20.8874ZM14.9585 0C13.0603 0 11.1806 0.373889 9.42683 1.10032C7.67307 1.82675 6.07957 2.89149 4.7373 4.23376C2.02647 6.94459 0.50354 10.6213 0.50354 14.455C0.50354 18.2887 2.02647 21.9653 4.7373 24.6762C6.07957 26.0184 7.67307 27.0832 9.42683 27.8096C11.1806 28.536 13.0603 28.9099 14.9585 28.9099C18.7922 28.9099 22.4689 27.387 25.1797 24.6762C27.8905 21.9653 29.4135 18.2887 29.4135 14.455C29.4135 12.5567 29.0396 10.677 28.3132 8.92329C27.5867 7.16953 26.522 5.57603 25.1797 4.23376C23.8374 2.89149 22.2439 1.82675 20.4902 1.10032C18.7364 0.373889 16.8568 0 14.9585 0Z" fill="black"/>
</svg>
