<svg width="30" height="30" viewBox="0 0 30 30" fill="none" xmlns="http://www.w3.org/2000/svg">
<path fill-rule="evenodd" clip-rule="evenodd" d="M14.2789 1.21997C14.5729 1.22378 14.9337 1.23523 15.0807 1.24667C15.2277 1.25812 15.5064 1.28483 15.7011 1.30772C15.8958 1.32871 16.1783 1.36686 16.331 1.39166C16.4838 1.41646 16.7186 1.46034 16.856 1.48705C16.9934 1.51567 17.2855 1.58435 17.505 1.63967C17.7246 1.6969 18.0395 1.78466 18.2018 1.83617C18.3641 1.88768 18.6275 1.97734 18.784 2.03458C18.9425 2.09181 19.2078 2.19674 19.3758 2.26923C19.5438 2.33982 19.853 2.48099 20.063 2.58401C20.273 2.68703 20.5994 2.86063 20.7884 2.96937C20.9774 3.07812 21.2313 3.23074 21.3515 3.30705C21.4718 3.38336 21.6703 3.5169 21.7906 3.60084C21.9109 3.68478 22.1094 3.82977 22.2297 3.91944C22.3499 4.01101 22.579 4.19224 22.7355 4.32388C22.894 4.45551 23.1555 4.68635 23.3178 4.83897C23.48 4.98968 23.7301 5.23769 23.8713 5.39031C24.0126 5.54102 24.2016 5.75088 24.2913 5.8558C24.381 5.96073 24.5242 6.13243 24.6082 6.23735C24.6922 6.34228 24.8354 6.52733 24.9251 6.64752C25.0129 6.76771 25.1732 6.99664 25.2782 7.15307C25.3832 7.31142 25.5474 7.56896 25.6409 7.7254C25.7364 7.88374 25.8719 8.12412 25.9445 8.25957C26.017 8.39693 26.1468 8.65447 26.2327 8.8319C26.3186 9.01122 26.4446 9.28976 26.5114 9.45191C26.5782 9.61407 26.6851 9.89451 26.75 10.0719C26.813 10.2494 26.897 10.4993 26.9352 10.6252C26.9734 10.7511 27.0287 10.9438 27.0593 11.0544C27.0898 11.1651 27.1433 11.3845 27.1795 11.5409C27.2177 11.6992 27.2731 11.9682 27.3055 12.1418C27.3361 12.3154 27.38 12.5902 27.401 12.7523C27.4239 12.9145 27.4544 13.1892 27.4716 13.3628C27.4869 13.5364 27.506 13.9657 27.5117 14.3167C27.5193 14.7192 27.5136 15.0874 27.5002 15.3087C27.4869 15.5033 27.464 15.7818 27.4487 15.9287C27.4334 16.0756 27.4029 16.3122 27.3819 16.4534C27.3628 16.5945 27.3189 16.8483 27.2864 17.0161C27.2559 17.184 27.1948 17.4626 27.1528 17.6362C27.1108 17.8098 27.0516 18.0406 27.0192 18.1513C26.9867 18.2619 26.9314 18.4489 26.8302 18.7808L26.6908 18.653C26.6126 18.5805 26.395 18.3764 26.2041 18.199C26.0132 18.0215 25.8566 17.8651 25.8566 17.8556C25.8566 17.846 25.8948 17.682 25.9406 17.4931C25.9884 17.3042 26.0571 16.9913 26.0933 16.7968C26.1296 16.6022 26.1773 16.3065 26.1983 16.1386C26.2193 15.9707 26.2461 15.7265 26.2575 15.5949C26.2671 15.4632 26.2804 15.3106 26.2957 15.1561H22.9551L22.6344 14.8566C22.4587 14.6906 22.1151 14.3682 21.4279 13.7253V13.5956C21.4279 13.525 21.4145 13.2922 21.3993 13.0766C21.3821 12.8611 21.3515 12.531 21.3305 12.3422C21.3096 12.1533 21.2714 11.8519 21.2446 11.6744C21.2179 11.497 21.1721 11.209 21.1397 11.0353C21.1091 10.8617 21.0442 10.5451 20.9946 10.3295C20.9469 10.1139 20.8667 9.78386 20.8151 9.595C20.7636 9.40613 20.6815 9.12187 20.6338 8.96544C20.5842 8.80709 20.5288 8.63349 20.4734 8.47896H14.8039V13.9351H17.82V15.1561H14.8039V20.5932H17.82V21.8141H14.8039V24.2084C14.8039 26.3241 14.8077 26.6026 14.8325 26.6026C14.8478 26.6026 14.949 26.5854 15.0578 26.5625C15.1647 26.5396 15.325 26.5015 15.4148 26.4767C15.5045 26.45 15.6725 26.3947 15.787 26.3527C15.9015 26.3088 16.1172 26.2134 16.2642 26.1409C16.4112 26.0665 16.6136 25.9559 16.7128 25.8929C16.8121 25.83 16.9763 25.7212 17.0755 25.6487C17.1748 25.5781 17.3313 25.456 17.423 25.3778C17.5146 25.3015 17.6406 25.1928 17.82 25.0382L17.8219 27.3562L17.5967 27.4172C17.4726 27.4516 17.234 27.5107 17.066 27.5469C16.898 27.5851 16.5887 27.6442 16.3788 27.6805C16.1688 27.7167 15.8424 27.7625 15.6534 27.7835C15.4644 27.8045 15.1513 27.8312 14.9566 27.8445C14.7352 27.8579 14.3629 27.8636 13.964 27.856C13.6127 27.8503 13.1832 27.8312 13.0095 27.8159C12.8358 27.7988 12.5609 27.7682 12.3986 27.7453C12.2364 27.7244 11.9615 27.6805 11.7878 27.65C11.6141 27.6175 11.3449 27.5622 11.1865 27.524C11.0299 27.4878 10.8104 27.4344 10.6997 27.4039C10.589 27.3733 10.3962 27.318 10.2702 27.2799C10.1442 27.2417 9.89602 27.1578 9.71658 27.0948C9.53714 27.0299 9.25843 26.9231 9.09617 26.8563C8.93391 26.7896 8.65521 26.6637 8.47577 26.5778C8.29824 26.492 8.04053 26.3622 7.90309 26.2897C7.76755 26.2172 7.52702 26.0818 7.36858 25.9864C7.21205 25.8929 6.95434 25.7289 6.7959 25.6239C6.63937 25.519 6.4103 25.3587 6.29003 25.271C6.16977 25.1813 5.9846 25.0382 5.87961 24.9543C5.77462 24.8704 5.60282 24.7273 5.49782 24.6376C5.39283 24.548 5.18285 24.3591 5.03204 24.2179C4.87933 24.0767 4.63117 23.8268 4.48036 23.6647C4.32765 23.5025 4.09666 23.2392 3.96495 23.0828C3.83323 22.9264 3.65188 22.6974 3.56025 22.5772C3.47053 22.4571 3.32545 22.2587 3.24146 22.1385C3.15747 22.0183 3.02384 21.8199 2.94748 21.6997C2.87113 21.5795 2.71841 21.3258 2.6096 21.1369C2.50079 20.948 2.32708 20.6218 2.224 20.4119C2.12092 20.2021 1.97965 19.893 1.90902 19.7252C1.83648 19.5573 1.73149 19.2902 1.67422 19.1338C1.61696 18.9773 1.52724 18.714 1.47569 18.5519C1.42415 18.3897 1.33634 18.075 1.27907 17.8556C1.22371 17.6362 1.15118 17.3214 1.11872 17.1592C1.08627 16.9971 1.04237 16.7567 1.02137 16.6251C1.00037 16.4934 0.966008 16.2359 0.946919 16.0527C0.92592 15.8696 0.899195 15.5853 0.887742 15.4232C0.876288 15.261 0.868652 14.8604 0.868652 14.5361C0.868652 14.2118 0.876288 13.8207 0.887742 13.668C0.899195 13.5154 0.920194 13.2674 0.937374 13.1148C0.952646 12.9622 0.987006 12.697 1.01373 12.5234C1.04046 12.3498 1.08818 12.0789 1.11872 11.9225C1.15118 11.766 1.21035 11.4989 1.25235 11.331C1.29435 11.1632 1.35543 10.9361 1.38597 10.8255C1.41843 10.7148 1.48715 10.5012 1.53678 10.3486C1.58641 10.1959 1.66468 9.97655 1.70858 9.86208C1.75249 9.74762 1.85366 9.4977 1.93193 9.30883C2.01211 9.11997 2.17437 8.77657 2.29081 8.54573C2.40726 8.31489 2.57906 7.9963 2.67069 7.83986C2.76423 7.68343 2.94367 7.39536 3.07347 7.20077C3.20137 7.00618 3.3999 6.72383 3.51444 6.57121C3.62898 6.41859 3.80842 6.19157 3.91341 6.06566C4.0184 5.93974 4.17302 5.76042 4.25702 5.66503C4.34101 5.57155 4.509 5.39222 4.62926 5.26631C4.74952 5.1423 4.96905 4.92864 5.11604 4.79128C5.26303 4.65583 5.50355 4.44216 5.65054 4.32006C5.79753 4.19797 6.0476 3.99956 6.20413 3.88128C6.36066 3.763 6.64891 3.56078 6.84363 3.43296C7.03834 3.30323 7.32659 3.1239 7.48312 3.03042C7.63965 2.93885 7.95844 2.76715 8.18943 2.65078C8.42041 2.53441 8.76402 2.37225 8.953 2.29212C9.14198 2.21391 9.39206 2.11279 9.50659 2.06892C9.62113 2.02504 9.84066 1.94682 9.99337 1.89722C10.1461 1.84762 10.3599 1.77894 10.4706 1.74651C10.5813 1.71598 10.8085 1.65493 10.9765 1.61296C11.1445 1.57099 11.4117 1.51185 11.5682 1.47942C11.7248 1.4489 11.9958 1.4012 12.1696 1.37449C12.3433 1.34779 12.6143 1.31345 12.7709 1.29628C12.9274 1.27911 13.2118 1.25431 13.4008 1.23904C13.6184 1.22378 13.9411 1.21615 14.2789 1.21997ZM12.79 2.66986C12.6544 2.71564 12.4425 2.79577 12.3223 2.85109C12.202 2.90451 12.0168 2.99608 11.9119 3.05522C11.8069 3.11246 11.6255 3.22311 11.511 3.29942C11.3964 3.37763 11.1845 3.53216 11.0433 3.64663C10.902 3.75918 10.6481 3.99002 10.4802 4.1579C10.3103 4.32579 10.1022 4.54899 10.0144 4.65392C9.92656 4.75885 9.77194 4.95725 9.66885 5.0927C9.56768 5.22815 9.41496 5.44373 9.33097 5.56964C9.24698 5.69555 9.12671 5.88442 9.06372 5.98935C9.00072 6.09427 8.88428 6.30031 8.80792 6.44721C8.72965 6.5941 8.60748 6.83448 8.53876 6.98138C8.46813 7.12827 8.40895 7.25418 8.40895 7.26182C8.40895 7.27135 9.57341 7.27708 10.9956 7.27708H13.5822V2.48862C13.5001 2.49053 13.3779 2.51342 13.2577 2.54013C13.1374 2.56493 12.9255 2.62407 12.79 2.66986ZM14.8039 7.27708H19.9962C19.8912 7.04815 19.7805 6.82685 19.6831 6.63798C19.5858 6.44911 19.4273 6.16104 19.3281 5.99888C19.2307 5.83673 19.078 5.59635 18.9883 5.46471C18.8986 5.33308 18.7573 5.13658 18.6733 5.02593C18.5874 4.91528 18.4557 4.74931 18.3755 4.65392C18.2972 4.55853 18.0815 4.33151 17.8983 4.14837C17.7131 3.96331 17.4669 3.7382 17.3523 3.64663C17.2378 3.55315 17.0564 3.4196 16.9514 3.34902C16.8465 3.27652 16.6918 3.17732 16.6078 3.12772C16.5238 3.07812 16.3788 2.9999 16.2833 2.9522C16.1879 2.90451 16.0218 2.8282 15.9111 2.78432C15.8004 2.73854 15.6114 2.67177 15.4911 2.63552C15.3708 2.59736 15.18 2.54967 15.0654 2.52868C14.9528 2.50579 14.8478 2.48862 14.8325 2.48862C14.8077 2.48862 14.8039 2.76715 14.8039 4.88285V7.27708ZM19.2594 3.88128C19.3624 4.00147 19.5438 4.22849 19.6621 4.38683C19.7805 4.54327 19.9752 4.82371 20.0974 5.00685C20.2176 5.19 20.3933 5.47425 20.4868 5.63641C20.5784 5.79857 20.7388 6.09427 20.84 6.29459C20.9392 6.4949 21.0805 6.7906 21.1511 6.95276C21.2217 7.11492 21.2847 7.25418 21.2924 7.26182C21.2981 7.26945 21.8822 7.27517 22.5904 7.27135L23.879 7.26754C23.522 6.82303 23.3426 6.60936 23.2509 6.50444C23.1574 6.39951 22.9188 6.1496 22.7183 5.95119C22.5179 5.75088 22.2239 5.47807 22.0674 5.34262C21.909 5.20717 21.6474 4.99731 21.4852 4.87522C21.3229 4.75121 21.0728 4.57379 20.9316 4.47841C20.7903 4.38493 20.5402 4.22658 20.378 4.12929C20.2157 4.03008 19.9198 3.86793 19.7194 3.76491C19.519 3.66189 19.2384 3.52644 19.0933 3.46348C18.9501 3.39862 18.8165 3.34711 18.7974 3.34711C18.7764 3.3452 18.8184 3.40053 18.9177 3.50355C19.0016 3.5913 19.1563 3.76109 19.2594 3.88128ZM8.81938 3.6905C8.63039 3.78398 8.35169 3.93088 8.19897 4.01864C8.04626 4.10639 7.81909 4.24375 7.6931 4.32388C7.56711 4.404 7.33995 4.55662 7.18723 4.66537C7.03452 4.77411 6.78636 4.96298 6.63364 5.08507C6.48093 5.20717 6.22322 5.42656 6.06096 5.57346C5.8987 5.72035 5.65818 5.95119 5.52837 6.08664C5.39665 6.22209 5.20003 6.43576 5.08931 6.56167C4.97859 6.68758 4.80297 6.89744 4.69989 7.02907L4.5109 7.26754C6.48475 7.27517 7.06315 7.27135 7.07079 7.26372C7.07842 7.25418 7.13569 7.12827 7.19678 6.98138C7.25977 6.83448 7.40294 6.52924 7.51557 6.30412C7.62629 6.07901 7.79809 5.7566 7.89354 5.58872C7.9909 5.42084 8.15125 5.15947 8.25051 5.00685C8.35169 4.85423 8.52922 4.60241 8.64757 4.44407C8.76592 4.28763 8.93391 4.07206 9.02172 3.96713C9.10953 3.86411 9.2508 3.70386 9.33479 3.61419C9.41878 3.52453 9.50277 3.43296 9.52186 3.40816C9.54668 3.37954 9.5505 3.36619 9.53141 3.36809C9.51805 3.36809 9.43023 3.40434 9.33479 3.44441C9.23934 3.48638 9.00836 3.59702 8.81938 3.6905ZM3.66143 8.56099C3.63279 8.60487 3.52589 8.80328 3.42472 9.00359C3.32164 9.20391 3.19374 9.46527 3.13838 9.58546C3.08493 9.70565 2.9933 9.92122 2.93603 10.0624C2.87876 10.2036 2.78523 10.4573 2.72796 10.6252C2.67069 10.7931 2.5886 11.0506 2.54661 11.1975C2.5027 11.3444 2.43971 11.5848 2.40535 11.7317C2.36908 11.8786 2.31944 12.1094 2.29272 12.2468C2.26599 12.3841 2.22782 12.6054 2.20682 12.7428C2.18582 12.8801 2.15528 13.111 2.14 13.2579C2.12473 13.4048 2.10373 13.6165 2.0961 13.731L2.08083 13.9351L5.7269 13.9256C5.74599 13.4239 5.76317 13.1434 5.77462 12.9813C5.78607 12.8191 5.8128 12.5234 5.8338 12.3231C5.8548 12.1228 5.89679 11.7794 5.92924 11.56C5.95979 11.3406 6.01133 11.0182 6.04378 10.8446C6.07432 10.671 6.13159 10.3886 6.16786 10.215C6.20413 10.0414 6.27476 9.74571 6.32249 9.55684C6.37021 9.36797 6.4542 9.05892 6.51147 8.87005C6.56683 8.68118 6.61455 8.51521 6.61455 8.50185C6.61455 8.48468 6.31103 8.47896 5.16376 8.47896H3.71297L3.66143 8.56099ZM7.85727 8.64684C7.82482 8.73842 7.76946 8.90821 7.73319 9.02267C7.69692 9.13904 7.6282 9.3756 7.58047 9.5473C7.53275 9.72091 7.46021 10.009 7.41822 10.1864C7.37622 10.3657 7.31513 10.65 7.28268 10.816C7.25023 10.9838 7.20251 11.2509 7.17769 11.4074C7.15287 11.5657 7.10897 11.8652 7.08415 12.0751C7.05743 12.2849 7.02307 12.6073 7.00589 12.7905C6.99061 12.9755 6.96961 13.2789 6.95816 13.4677C6.94862 13.6585 6.93907 13.8397 6.93907 13.8741V13.9351H13.5822V8.48087L7.91645 8.47896L7.85727 8.64684ZM21.8192 8.75177C21.8574 8.87005 21.9338 9.13523 21.9891 9.33936C22.0464 9.54349 22.1304 9.88688 22.18 10.1025C22.2277 10.318 22.2965 10.6557 22.3327 10.856C22.369 11.0563 22.4206 11.3654 22.4473 11.5428C22.474 11.7202 22.5122 12.0255 22.5332 12.2201C22.5561 12.4147 22.5847 12.7313 22.6 12.9259C22.6172 13.1205 22.6363 13.4277 22.6439 13.6089L22.6592 13.937H26.2957C26.2785 13.6928 26.2613 13.4887 26.2461 13.3266C26.2308 13.1644 26.1964 12.8935 26.1716 12.7256C26.1468 12.5577 26.1029 12.3097 26.0762 12.1724C26.0494 12.035 26.0017 11.8213 25.9712 11.6954C25.9425 11.5695 25.8815 11.3463 25.8395 11.1994C25.7975 11.0525 25.7135 10.7912 25.6562 10.6176C25.597 10.4439 25.4958 10.173 25.4329 10.0166C25.368 9.85827 25.2534 9.59309 25.1751 9.42521C25.0969 9.25732 24.9537 8.97498 24.8583 8.79946L24.6826 8.47896C21.928 8.48087 21.7524 8.48468 21.7524 8.50949C21.7524 8.52475 21.783 8.6354 21.8192 8.75177ZM2.09037 15.2286C2.09037 15.2687 2.09801 15.4003 2.10946 15.5205C2.11901 15.6407 2.14191 15.8505 2.15718 15.9879C2.17437 16.1252 2.20873 16.3599 2.23354 16.5125C2.25836 16.6651 2.3099 16.9303 2.34617 17.1039C2.38244 17.2775 2.44925 17.5465 2.49125 17.7048C2.53515 17.8613 2.62487 18.1532 2.69169 18.3535C2.75659 18.5538 2.85395 18.8228 2.9074 18.9544C2.95894 19.0861 3.05057 19.3035 3.11165 19.4409C3.17274 19.5783 3.27773 19.7996 3.34454 19.9369C3.41327 20.0743 3.52017 20.2765 3.58125 20.3891L3.69388 20.5951C6.11441 20.5951 6.61455 20.5894 6.61455 20.576C6.61455 20.5665 6.59355 20.4902 6.56683 20.4081C6.54201 20.328 6.48093 20.1201 6.43129 19.9465C6.38357 19.7729 6.31103 19.4943 6.27094 19.3264C6.22895 19.1586 6.16595 18.8743 6.12968 18.6969C6.09341 18.5195 6.03615 18.218 6.0056 18.0292C5.97315 17.8403 5.92543 17.5274 5.90061 17.3328C5.87389 17.1382 5.83571 16.7949 5.81471 16.5697C5.79371 16.3446 5.76698 15.9974 5.75553 15.7971C5.74408 15.5968 5.73262 15.3736 5.73071 15.3011L5.7269 15.1675L2.09037 15.158V15.2286ZM6.94671 15.4098C6.95434 15.5491 6.96771 15.7876 6.97725 15.9383C6.9887 16.0909 7.0097 16.3446 7.02497 16.5011C7.04025 16.6594 7.07079 16.9246 7.09179 17.0925C7.11279 17.2603 7.15669 17.5522 7.18723 17.7411C7.21969 17.93 7.27504 18.2352 7.31322 18.4183C7.34949 18.6034 7.42776 18.9411 7.48694 19.1719C7.54421 19.4027 7.63202 19.729 7.68356 19.8969C7.7351 20.0647 7.80573 20.2879 7.842 20.3929L7.9069 20.5836L13.5822 20.5932V15.1561H6.93335L6.94671 15.4098ZM4.56245 21.8866C4.59299 21.9267 4.68653 22.045 4.77052 22.1499C4.85642 22.2548 4.98814 22.4132 5.0664 22.5028C5.14467 22.5925 5.31457 22.7757 5.44247 22.913C5.57036 23.0485 5.80135 23.2774 5.95788 23.4224C6.11441 23.5655 6.33776 23.762 6.45229 23.8573C6.56874 23.9546 6.78254 24.1244 6.92953 24.2351C7.07652 24.3457 7.30941 24.5098 7.44494 24.6014C7.58238 24.6929 7.77137 24.815 7.86491 24.8723C7.96035 24.9314 8.13598 25.0344 8.25624 25.1031C8.3765 25.1699 8.62275 25.2996 8.80029 25.3874C8.97973 25.477 9.21643 25.5896 9.33097 25.6392C9.4436 25.6869 9.54095 25.7231 9.5505 25.7174C9.55813 25.7117 9.49896 25.6411 9.41878 25.5591C9.34051 25.4789 9.21453 25.3435 9.14198 25.2595C9.06945 25.1756 8.97018 25.0592 8.92246 25.002C8.87473 24.9448 8.75447 24.7902 8.65521 24.6586C8.55594 24.527 8.39368 24.2961 8.29251 24.1435C8.19134 23.9909 8.02526 23.7257 7.92408 23.5521C7.82291 23.3785 7.64538 23.0485 7.53084 22.8176C7.41631 22.5868 7.2655 22.2682 7.19869 22.1118L7.07461 21.8256L4.50709 21.8161L4.56245 21.8866ZM8.64566 22.3197C8.77547 22.583 8.95491 22.9168 9.04272 23.0637C9.13053 23.2106 9.26607 23.4262 9.34433 23.5407C9.42069 23.657 9.55432 23.8459 9.64022 23.9604C9.72421 24.0767 9.88456 24.2771 9.99528 24.4087C10.1041 24.5384 10.3045 24.7578 10.442 24.8971C10.5775 25.0344 10.776 25.2195 10.881 25.3091C10.986 25.3988 11.1445 25.5266 11.2342 25.5934C11.3239 25.6602 11.4957 25.7785 11.616 25.8567C11.7362 25.933 11.9806 26.0684 12.16 26.1562C12.3509 26.2497 12.6029 26.3546 12.7709 26.4099C12.9274 26.4633 13.1641 26.5282 13.2958 26.5549C13.4275 26.5816 13.5459 26.6026 13.5574 26.6026C13.5764 26.6026 13.5822 26.1123 13.5822 24.2084V21.8141C9.57341 21.8141 8.40895 21.8218 8.40895 21.8294C8.40895 21.837 8.51585 22.0583 8.64566 22.3197ZM20.2539 15.158C20.3627 15.158 20.4085 15.1675 20.5021 15.2114C20.5994 15.2572 21.2313 15.8429 24.9213 19.2997C28.2676 22.4361 29.2355 23.3537 29.2679 23.4186C29.2908 23.4644 29.3195 23.5483 29.3309 23.6036C29.3443 23.6723 29.3443 23.7353 29.3309 23.8039C29.3195 23.8593 29.2946 23.9375 29.2736 23.9794C29.2545 24.0214 29.1973 24.0939 29.1457 24.1416C29.0961 24.1874 29.0159 24.2446 28.9682 24.2656C28.8842 24.3038 28.8479 24.3038 27.3876 24.3095C26.2041 24.3133 25.8967 24.319 25.9025 24.3381C25.9063 24.3515 26.269 25.1432 26.7061 26.097C27.4029 27.6175 27.5041 27.8484 27.5136 27.9476C27.5193 28.0105 27.5136 28.1059 27.5002 28.1574C27.4869 28.2108 27.4449 28.2986 27.4067 28.3558C27.3685 28.4111 27.2979 28.4817 27.2502 28.5104C27.2024 28.5409 26.6278 28.808 25.9712 29.1075C25.3145 29.407 24.7437 29.6626 24.7017 29.6741C24.6597 29.6874 24.5872 29.6951 24.5395 29.6893C24.4917 29.6855 24.3982 29.6569 24.3314 29.6264C24.2512 29.5882 24.1825 29.5386 24.131 29.4814C24.068 29.4108 23.9057 29.0731 23.2929 27.7358C22.8749 26.8239 22.5255 26.0665 22.516 26.0494C22.5007 26.0284 22.2984 26.2191 21.5482 26.9689C20.9087 27.6061 20.5689 27.9304 20.5116 27.9609C20.441 27.9972 20.3971 28.0048 20.2539 28.0048C20.1031 28.0048 20.0687 27.9991 19.9809 27.9533C19.9275 27.9247 19.8511 27.8693 19.8129 27.8293C19.7767 27.7892 19.727 27.7186 19.6621 27.5851L19.6564 21.6234C19.6526 16.8216 19.6564 15.6464 19.6755 15.5777C19.6889 15.53 19.7251 15.4556 19.7576 15.4117C19.7881 15.3679 19.8492 15.3049 19.8912 15.2744C19.9332 15.2419 20.0019 15.2038 20.0439 15.1885C20.0859 15.1714 20.1795 15.158 20.2539 15.158ZM20.8514 21.5604C20.8533 24.4487 20.861 25.9158 20.8743 25.9158C20.8839 25.9158 21.2217 25.5915 21.6226 25.1947C22.1094 24.712 22.3824 24.4564 22.4396 24.4278C22.4969 24.3991 22.5714 24.382 22.6592 24.3763C22.7661 24.3686 22.8157 24.3763 22.9073 24.4106C22.9875 24.4411 23.0505 24.4831 23.1173 24.5518C23.207 24.6414 23.2605 24.7521 24.0431 26.4557C24.4994 27.4516 24.8793 28.2643 24.8869 28.2643C24.8964 28.2643 25.1656 28.1422 25.4882 27.9953C25.8127 27.8465 26.0838 27.7205 26.0914 27.7129C26.0991 27.7053 25.7536 26.9269 25.3202 25.9826C24.8888 25.0382 24.4956 24.1798 24.4478 24.0748C24.3696 23.9031 24.36 23.8707 24.36 23.741C24.36 23.6475 24.3715 23.5731 24.3944 23.5216C24.4116 23.4796 24.4498 23.4128 24.4784 23.3728C24.507 23.3327 24.5719 23.2698 24.6254 23.2354C24.6769 23.2011 24.759 23.1572 24.8067 23.1381C24.885 23.1057 24.99 23.1019 26.038 23.0923L27.1853 23.0828C22.516 18.7064 21.0977 17.3786 21.0194 17.308C20.943 17.2374 20.8724 17.1859 20.8648 17.1917C20.8552 17.1993 20.8495 19.1643 20.8514 21.5604Z" fill="black" stroke="black" stroke-width="0.569445"/>
</svg>
