<svg width="26" height="26" viewBox="0 0 26 26" fill="none" xmlns="http://www.w3.org/2000/svg">
<path d="M21.7131 24.8507L21.7131 24.8508C22.1288 25.2665 22.6926 25.5 23.2805 25.5C23.8684 25.5 24.4322 25.2665 24.8479 24.8508C25.2636 24.4351 25.4971 23.8713 25.4971 23.2835C25.4971 22.6956 25.2636 22.1318 24.8479 21.7161L16.4882 13.3543C16.293 13.159 16.293 12.8425 16.4882 12.6472L24.8508 4.28386C24.8508 4.28385 24.8508 4.28384 24.8508 4.28383C25.2665 3.86816 25.5 3.30438 25.5 2.71653C25.5 2.12866 25.2665 1.56487 24.8508 1.1492C24.4351 0.733518 23.8712 0.5 23.2834 0.5C22.6955 0.5 22.1317 0.733518 21.716 1.1492L21.716 1.14922L13.3536 9.51237C13.1583 9.70767 12.8417 9.70766 12.6465 9.51235L4.28693 1.15068L4.28687 1.15062C3.87117 0.734947 3.30736 0.501428 2.71949 0.501428C2.13161 0.501428 1.5678 0.734947 1.1521 1.15062C0.7364 1.5663 0.502856 2.13009 0.502856 2.71796C0.502856 3.3058 0.736379 3.86956 1.15205 4.28523C1.15206 4.28525 1.15208 4.28527 1.1521 4.28529L9.51166 12.647C9.70691 12.8423 9.70686 13.1589 9.51155 13.3541L1.1493 21.7132L1.14925 21.7133C0.733545 22.129 0.5 22.6927 0.5 23.2806C0.5 23.8685 0.733545 24.4323 1.14925 24.8479C1.56495 25.2636 2.12875 25.4971 2.71663 25.4971C3.30448 25.4971 3.86826 25.2636 4.28396 24.848C4.28398 24.848 4.28399 24.848 4.28401 24.8479L12.6463 16.4888C12.8416 16.2936 13.1581 16.2936 13.3534 16.4889L21.7131 24.8507Z" fill="#161616" stroke="#161616"/>
</svg>
