<svg width="34" height="27" viewBox="0 0 34 27" fill="none" xmlns="http://www.w3.org/2000/svg">
<path d="M13.4913 19.1337L22.2438 13.455L13.4913 7.77624V19.1337ZM32.9862 4.31221C33.2055 5.20188 33.3572 6.39441 33.4584 7.90874C33.5765 9.42307 33.6271 10.7292 33.6271 11.8649L33.7283 13.455C33.7283 17.6005 33.4584 20.648 32.9862 22.5977C32.5646 24.3014 31.5865 25.3992 30.0687 25.8725C29.2761 26.1186 27.8258 26.2889 25.5997 26.4025C23.4074 26.535 21.4006 26.5918 19.5455 26.5918L16.8641 26.7054C9.79806 26.7054 5.39652 26.4025 3.65952 25.8725C2.14174 25.3992 1.16362 24.3014 0.742022 22.5977C0.522788 21.7081 0.371011 20.5155 0.269826 19.0012C0.151777 17.4869 0.101185 16.1808 0.101185 15.045L0 13.455C0 9.3095 0.269826 6.26191 0.742022 4.31221C1.16362 2.60859 2.14174 1.5107 3.65952 1.03747C4.45213 0.791393 5.90244 0.62103 8.12851 0.507455C10.3208 0.374952 12.3277 0.318164 14.1827 0.318164L16.8641 0.20459C23.9302 0.20459 28.3317 0.507456 30.0687 1.03747C31.5865 1.5107 32.5646 2.60859 32.9862 4.31221Z" fill="black"/>
</svg>
