<svg width="52" height="52" viewBox="0 0 52 52" fill="none" xmlns="http://www.w3.org/2000/svg">
<path fill-rule="evenodd" clip-rule="evenodd" d="M39.4248 0.074106C40.1365 -0.0910805 40.8844 0.0222104 41.5153 0.390758C42.1462 0.759306 42.6122 1.3552 42.8178 2.0563C43.0235 2.75739 42.9532 3.5106 42.6214 4.16153C42.2895 4.81246 41.7213 5.31181 41.0331 5.55724L40.7126 5.64882L34.3451 7.11977V20.032H45.7922C47.2362 20.0316 48.627 20.5769 49.6858 21.5588C50.7446 22.5406 51.3931 23.8864 51.5014 25.3263L51.5157 25.7556V45.7879C51.5162 47.2319 50.9708 48.6227 49.989 49.6815C49.0071 50.7403 47.6614 51.3888 46.2215 51.4971L45.7922 51.5114L8.58927 51.5114C7.1453 51.5119 5.75451 50.9665 4.69571 49.9847C3.63691 49.0029 2.98835 47.6571 2.88006 46.2172L2.86575 45.7879L2.86575 14.3085C2.19092 14.3095 1.53747 14.0719 1.02081 13.6378C0.504155 13.2037 0.157525 12.6009 0.0421454 11.9361C-0.0732343 11.2712 0.0500596 10.5869 0.390252 10.0041C0.730444 9.42129 1.26565 8.97745 1.90133 8.75097L2.22185 8.6594L39.4248 0.074106ZM34.3451 31.4791L31.4834 31.4791C30.7824 31.4792 30.1059 31.7365 29.5821 32.2023C29.0583 32.6681 28.7237 33.3099 28.6416 34.006L28.6216 34.3409V45.7879H37.2069V34.3409C37.2068 33.6399 36.9495 32.9634 36.4837 32.4396C36.0179 31.9158 35.3761 31.5811 34.68 31.4991L34.3451 31.4791ZM14.3128 11.7415L8.58927 13.0637L8.58927 45.7879H14.3128L14.3128 11.7415ZM28.6216 8.43904L20.0363 10.4222L20.0363 20.032H28.6216L28.6216 8.43904Z" fill="#161616"/>
</svg>
